<?xml version="1.0" encoding="utf-8"?>
<svg version="1.1" xmlns:xlink="http://www.w3.org/1999/xlink" width="50px" height="38px" xmlns="http://www.w3.org/2000/svg">
  <g transform="matrix(1 0 0 1 -800 -849 )">
    <path d="M 10 19  L 16 19  L 16 31.666666666666668  L 10 31.666666666666668  L 10 19  Z M 19 6.333333333333332  L 25 6.333333333333332  L 25 31.666666666666668  L 19 31.666666666666668  L 19 6.333333333333332  Z M 4 34.83333333333333  L 50 34.83333333333333  L 50 38  L 0 38  L 0 0  L 4 0  L 4 34.83333333333333  Z M 28 12.666666666666668  L 34 12.666666666666668  L 34 31.666666666666668  L 28 31.666666666666668  L 28 12.666666666666668  Z M 37 3.166666666666668  L 43 3.166666666666668  L 43 31.666666666666668  L 37 31.666666666666668  L 37 3.166666666666668  Z " fill-rule="nonzero" fill="#085096" stroke="none" transform="matrix(1 0 0 1 800 849 )" />
  </g>
</svg>