<?xml version="1.0" encoding="utf-8"?>
<svg version="1.1" xmlns:xlink="http://www.w3.org/1999/xlink" width="55px" height="60px" xmlns="http://www.w3.org/2000/svg">
  <g transform="matrix(1 0 0 1 -795 -1134 )">
    <path d="M 42.30769230769231 3.214285714285716  L 42.30769230769231 1.0714285714285743  C 42.30769230769231 0.7589285714285654  42.40685096153846 0.5022321428571419  42.605168269230774 0.3013392857142838  C 42.80348557692307 0.10044642857142572  43.05689102564102 0  43.36538461538461 0  L 52.88461538461539 0  C 53.45753205128206 0  53.953325320512825 0.2120535714285765  54.37199519230769 0.6361607142857162  C 54.79066506410257 1.0602678571428492  55 1.5624999999999978  55 2.142857142857142  L 55 11.785714285714285  C 55 12.098214285714286  54.90084134615385 12.354910714285715  54.70252403846154 12.555803571428575  C 54.504206730769226 12.756696428571425  54.250801282051285 12.857142857142858  53.94230769230769 12.857142857142858  L 51.82692307692307 12.857142857142858  C 51.518429487179496 12.857142857142858  51.26502403846155 12.756696428571425  51.066706730769226 12.555803571428575  C 50.86838942307693 12.354910714285715  50.769230769230774 12.098214285714286  50.769230769230774 11.785714285714285  L 50.769230769230774 7.299107142857142  L 42.37379807692307 15.837053571428575  C 45.15024038461539 19.363839285714285  46.53846153846154 23.370535714285715  46.53846153846154 27.857142857142858  C 46.53846153846154 32.79017857142857  44.91336137820513 37.081473214285715  41.66316105769231 40.731026785714285  C 38.41296073717949 44.38058035714286  34.39703525641026 46.473214285714285  29.615384615384613 47.00892857142857  L 29.615384615384613 51.42857142857143  L 32.78846153846154 51.42857142857143  C 33.096955128205124 51.42857142857143  33.35036057692307 51.52901785714286  33.54867788461539 51.729910714285715  C 33.74699519230769 51.93080357142857  33.84615384615385 52.18750000000001  33.84615384615385 52.5  L 33.84615384615385 54.64285714285714  C 33.84615384615385 54.95535714285714  33.74699519230769 55.21205357142858  33.54867788461539 55.41294642857142  C 33.35036057692307 55.613839285714285  33.096955128205124 55.714285714285715  32.78846153846154 55.714285714285715  L 29.615384615384613 55.714285714285715  L 29.615384615384613 58.92857142857142  C 29.615384615384613 59.24107142857143  29.516225961538463 59.49776785714286  29.317908653846153 59.698660714285715  C 29.119591346153847 59.89955357142858  28.866185897435898 60  28.55769230769231 60  L 26.442307692307693 60  C 26.133814102564106 60  25.880408653846157 59.89955357142858  25.682091346153847 59.698660714285715  C 25.483774038461537 59.49776785714286  25.384615384615387 59.24107142857143  25.384615384615387 58.92857142857142  L 25.384615384615387 55.714285714285715  L 22.211538461538463 55.714285714285715  C 21.903044871794872 55.714285714285715  21.649639423076923 55.613839285714285  21.451322115384613 55.41294642857142  C 21.253004807692307 55.21205357142858  21.153846153846153 54.95535714285714  21.153846153846153 54.64285714285714  L 21.153846153846153 52.5  C 21.153846153846153 52.18750000000001  21.253004807692307 51.93080357142857  21.451322115384613 51.729910714285715  C 21.649639423076923 51.52901785714286  21.903044871794872 51.42857142857143  22.211538461538463 51.42857142857143  L 25.384615384615387 51.42857142857143  L 25.384615384615387 47.00892857142857  C 20.602964743589745 46.473214285714285  16.58703926282051 44.38058035714286  13.336838942307693 40.731026785714285  C 10.086638621794872 37.081473214285715  8.461538461538462 32.79017857142857  8.461538461538462 27.857142857142858  C 8.461538461538462 23.370535714285715  9.849759615384615 19.363839285714285  12.626201923076923 15.837053571428575  L 10.907451923076923 14.0625  L 7.5691105769230775 17.779017857142858  C 7.370793269230769 18.00223214285714  7.128405448717949 18.11941964285714  6.841947115384616 18.130580357142858  C 6.555488782051283 18.14174107142857  6.302083333333334 18.05803571428571  6.081730769230769 17.879464285714285  L 4.4951923076923075 16.40625  C 4.274839743589744 16.227678571428566  4.159154647435898 15.987723214285715  4.148137019230769 15.686383928571425  C 4.1371193910256405 15.385044642857142  4.230769230769231 15.122767857142849  4.429086538461538 14.899553571428575  L 7.8996394230769225 11.049107142857142  L 4.230769230769231 7.299107142857142  L 4.230769230769231 11.785714285714285  C 4.230769230769231 12.098214285714286  4.131610576923077 12.354910714285715  3.933293269230769 12.555803571428575  C 3.7349759615384612 12.756696428571425  3.481570512820513 12.857142857142858  3.1730769230769234 12.857142857142858  L 1.0576923076923077 12.857142857142858  C 0.749198717948718 12.857142857142858  0.4957932692307693 12.756696428571425  0.2974759615384615 12.555803571428575  C 0.09915865384615385 12.354910714285715  0 12.098214285714286  0 11.785714285714285  L 0 2.142857142857142  C 0 1.5624999999999978  0.2093349358974359 1.0602678571428492  0.6280048076923077 0.6361607142857162  C 1.0466746794871795 0.2120535714285765  1.542467948717949 0  2.1153846153846154 0  L 11.634615384615385 0  C 11.943108974358976 0  12.196514423076923 0.10044642857142572  12.394831730769232 0.3013392857142838  C 12.593149038461538 0.5022321428571419  12.692307692307693 0.7589285714285654  12.692307692307693 1.0714285714285743  L 12.692307692307693 3.214285714285716  C 12.692307692307693 3.5267857142857117  12.593149038461538 3.783482142857142  12.394831730769232 3.984375  C 12.196514423076923 4.185267857142858  11.943108974358976 4.285714285714284  11.634615384615385 4.285714285714284  L 7.238581730769231 4.285714285714284  L 10.7421875 7.868303571428575  L 13.584735576923077 4.720982142857142  C 13.783052884615387 4.497767857142854  14.025440705128206 4.380580357142854  14.311899038461538 4.369419642857142  C 14.598357371794874 4.3582589285714235  14.851762820512823 4.441964285714281  15.072115384615387 4.620535714285716  L 16.658653846153847 6.09375  C 16.879006410256412 6.272321428571428  16.99469150641026 6.512276785714284  17.005709134615387 6.813616071428575  C 17.01672676282051 7.114955357142858  16.923076923076923 7.377232142857137  16.724759615384613 7.600446428571425  L 13.75 10.915178571428575  L 15.634014423076923 12.790178571428575  C 19.115584935897438 9.977678571428575  23.070913461538463 8.571428571428575  27.5 8.571428571428575  C 31.929086538461537 8.571428571428575  35.88441506410257 9.977678571428575  39.36598557692307 12.790178571428575  L 47.79447115384615 4.285714285714284  L 43.36538461538461 4.285714285714284  C 43.05689102564102 4.285714285714284  42.80348557692307 4.185267857142858  42.605168269230774 3.984375  C 42.40685096153846 3.783482142857142  42.30769230769231 3.5267857142857117  42.30769230769231 3.214285714285716  Z M 17.03876201923077 38.45424107142857  C 19.93639823717949 41.38950892857142  23.423477564102566 42.85714285714286  27.5 42.85714285714286  C 31.57652243589744 42.85714285714286  35.06360176282052 41.38950892857142  37.961237980769226 38.45424107142857  C 40.85887419871795 35.51897321428571  42.30769230769231 31.986607142857146  42.30769230769231 27.857142857142858  C 42.30769230769231 23.727678571428566  40.85887419871795 20.195312499999996  37.961237980769226 17.260044642857142  C 35.06360176282052 14.324776785714286  31.57652243589744 12.857142857142858  27.5 12.857142857142858  C 23.423477564102566 12.857142857142858  19.93639823717949 14.324776785714286  17.03876201923077 17.260044642857142  C 14.141125801282051 20.195312499999996  12.692307692307693 23.727678571428566  12.692307692307693 27.857142857142858  C 12.692307692307693 31.986607142857146  14.141125801282051 35.51897321428571  17.03876201923077 38.45424107142857  Z " fill-rule="nonzero" fill="#085096" stroke="none" transform="matrix(1 0 0 1 795 1134 )" />
  </g>
</svg>