<?xml version="1.0" encoding="utf-8"?>
<svg version="1.1" xmlns:xlink="http://www.w3.org/1999/xlink" width="50px" height="47px" xmlns="http://www.w3.org/2000/svg">
  <g transform="matrix(1 0 0 1 -92 -1134 )">
    <path d="M 13.333333333333334 16.785714285714285  C 13.333333333333334 19.216145833333332  14.036458333333332 21.454241071428573  15.442708333333332 23.5  C 12.630208333333334 23.587425595238095  10.329861111111112 24.70647321428571  8.541666666666666 26.857142857142854  L 5.052083333333333 26.857142857142854  C 3.628472222222222 26.857142857142854  2.430555555555556 26.503069196428573  1.4583333333333333 25.794921875  C 0.48611111111111105 25.086774553571427  0 24.05078125  0 22.686941964285715  C 0 16.514694940476186  1.0763888888888886 13.428571428571427  3.229166666666667 13.428571428571427  C 3.3333333333333335 13.428571428571427  3.7109375 13.612165178571427  4.361979166666666 13.979352678571427  C 5.013020833333334 14.346540178571427  5.859375 14.718098958333332  6.901041666666667 15.094029017857144  C 7.942708333333333 15.469959077380953  8.975694444444445 15.657924107142856  10 15.657924107142856  C 11.163194444444445 15.657924107142856  12.317708333333334 15.456845238095235  13.463541666666668 15.0546875  C 13.376736111111112 15.701636904761898  13.333333333333334 16.278645833333332  13.333333333333334 16.785714285714285  Z M 43.2421875 37.492466517857146  C 43.30295138888889 38.375465029761905  43.333333333333336 39.28031994047619  43.333333333333336 40.20703125  C 43.333333333333336 42.305245535714285  42.69965277777778 43.96196056547619  41.432291666666664 45.177176339285715  C 40.164930555555564 46.392392113095234  38.48090277777778 47  36.380208333333336 47  L 13.619791666666666 47  C 11.519097222222223 47  9.835069444444446 46.392392113095234  8.567708333333334 45.177176339285715  C 7.300347222222222 43.96196056547619  6.666666666666667 42.305245535714285  6.666666666666667 40.20703125  C 6.666666666666667 39.28031994047619  6.697048611111112 38.375465029761905  6.7578125 37.492466517857146  C 6.81857638888889 36.60946800595238  6.940104166666666 35.656529017857146  7.122395833333334 34.63364955357143  C 7.3046875 33.61077008928571  7.534722222222223 32.66220238095238  7.8125 31.787946428571427  C 8.090277777777779 30.91369047619047  8.463541666666668 30.061290922619044  8.932291666666666 29.230747767857146  C 9.401041666666666 28.400204613095234  9.939236111111112 27.692057291666664  10.546875 27.106305803571427  C 11.15451388888889 26.520554315476193  11.896701388888891 26.05282738095238  12.773437500000002 25.703125  C 13.650173611111112 25.353422619047613  14.618055555555557 25.178571428571427  15.677083333333334 25.178571428571427  C 15.850694444444446 25.178571428571427  16.223958333333332 25.366536458333332  16.796875 25.742466517857146  C 17.369791666666668 26.118396577380953  18.00347222222222 26.538039434523807  18.697916666666668 27.00139508928571  C 19.392361111111114 27.464750744047613  20.321180555555557 27.88439360119047  21.484375 28.26032366071429  C 22.647569444444446 28.636253720238095  23.819444444444446 28.82421875  25 28.82421875  C 26.180555555555557 28.82421875  27.352430555555557 28.636253720238095  28.515625 28.26032366071429  C 29.67881944444445 27.88439360119047  30.607638888888893 27.464750744047613  31.302083333333336 27.00139508928571  C 31.99652777777778 26.538039434523807  32.630208333333336 26.118396577380953  33.203125 25.742466517857146  C 33.776041666666664 25.366536458333332  34.14930555555556 25.178571428571427  34.322916666666664 25.178571428571427  C 35.38194444444444 25.178571428571427  36.34982638888889 25.353422619047613  37.2265625 25.703125  C 38.103298611111114 26.05282738095238  38.84548611111111 26.520554315476193  39.453125 27.106305803571427  C 40.06076388888889 27.692057291666664  40.598958333333336 28.400204613095234  41.067708333333336 29.230747767857146  C 41.53645833333333 30.061290922619044  41.90972222222223 30.91369047619047  42.1875 31.787946428571427  C 42.465277777777786 32.66220238095238  42.6953125 33.61077008928571  42.877604166666664 34.63364955357143  C 43.059895833333336 35.656529017857146  43.181423611111114 36.60946800595238  43.2421875 37.492466517857146  Z M 14.713541666666666 1.9670758928571443  C 16.015625 3.278459821428572  16.666666666666664 4.860863095238091  16.666666666666664 6.714285714285716  C 16.666666666666664 8.567708333333332  16.015625 10.150111607142856  14.713541666666666 11.461495535714283  C 13.411458333333334 12.772879464285717  11.840277777777779 13.428571428571427  10 13.428571428571427  C 8.159722222222223 13.428571428571427  6.588541666666667 12.772879464285717  5.286458333333333 11.461495535714283  C 3.9843749999999996 10.150111607142856  3.3333333333333335 8.567708333333332  3.3333333333333335 6.714285714285716  C 3.3333333333333335 4.860863095238091  3.9843749999999996 3.278459821428572  5.286458333333333 1.9670758928571443  C 6.588541666666667 0.6556919642857165  8.159722222222223 0  10 0  C 11.840277777777779 0  13.411458333333334 0.6556919642857165  14.713541666666666 1.9670758928571443  Z M 32.0703125 9.664899553571427  C 34.0234375 11.631975446428573  35 14.005580357142856  35 16.785714285714285  C 35 19.565848214285715  34.0234375 21.939453125  32.0703125 23.906529017857146  C 30.117187499999996 25.87360491071429  27.760416666666664 26.857142857142854  25 26.857142857142854  C 22.23958333333334 26.857142857142854  19.882812500000004 25.87360491071429  17.9296875 23.906529017857146  C 15.9765625 21.939453125  15 19.565848214285715  15 16.785714285714285  C 15 14.005580357142856  15.9765625 11.631975446428573  17.9296875 9.664899553571427  C 19.882812500000004 7.697823660714284  22.23958333333334 6.714285714285716  25 6.714285714285716  C 27.760416666666664 6.714285714285716  30.117187499999996 7.697823660714284  32.0703125 9.664899553571427  Z M 46.770833333333336 13.428571428571427  C 48.92361111111112 13.428571428571427  50.000000000000014 16.514694940476186  50 22.686941964285715  C 50.000000000000014 24.05078125  49.51388888888889 25.086774553571427  48.541666666666664 25.794921875  C 47.56944444444445 26.503069196428573  46.371527777777786 26.857142857142854  44.947916666666664 26.857142857142854  L 41.458333333333336 26.857142857142854  C 39.67013888888889 24.70647321428571  37.36979166666667 23.587425595238095  34.557291666666664 23.5  C 35.963541666666664 21.454241071428573  36.666666666666664 19.216145833333332  36.666666666666664 16.785714285714285  C 36.666666666666664 16.278645833333332  36.62326388888889 15.701636904761898  36.536458333333336 15.0546875  C 37.682291666666664 15.456845238095235  38.83680555555556 15.657924107142856  40 15.657924107142856  C 41.02430555555556 15.657924107142856  42.05729166666667 15.469959077380953  43.09895833333333 15.094029017857144  C 44.140625 14.718098958333332  44.98697916666667 14.346540178571427  45.63802083333333 13.979352678571427  C 46.2890625 13.612165178571427  46.666666666666664 13.428571428571427  46.770833333333336 13.428571428571427  Z M 44.713541666666664 1.9670758928571443  C 46.015625 3.278459821428572  46.666666666666664 4.860863095238091  46.666666666666664 6.714285714285716  C 46.666666666666664 8.567708333333332  46.015625 10.150111607142856  44.713541666666664 11.461495535714283  C 43.411458333333336 12.772879464285717  41.84027777777778 13.428571428571427  40 13.428571428571427  C 38.15972222222223 13.428571428571427  36.58854166666667 12.772879464285717  35.28645833333333 11.461495535714283  C 33.984375 10.150111607142856  33.33333333333333 8.567708333333332  33.33333333333333 6.714285714285716  C 33.33333333333333 4.860863095238091  33.984375 3.278459821428572  35.28645833333333 1.9670758928571443  C 36.58854166666667 0.6556919642857165  38.15972222222223 0  40 0  C 41.84027777777778 0  43.411458333333336 0.6556919642857165  44.713541666666664 1.9670758928571443  Z " fill-rule="nonzero" fill="#085096" stroke="none" transform="matrix(1 0 0 1 92 1134 )" />
  </g>
</svg>