<?xml version="1.0" encoding="utf-8"?>
<svg version="1.1" xmlns:xlink="http://www.w3.org/1999/xlink" width="38px" height="46px" xmlns="http://www.w3.org/2000/svg">
  <g transform="matrix(1 0 0 1 -97 -843 )">
    <path d="M 10.555555555555555 14.636363636363638  L 10.555555555555555 21  L 27.444444444444443 21  L 27.444444444444443 14.636363636363638  C 27.444444444444443 12.327651515151514  26.619791666666668 10.35653409090909  24.97048611111111 8.723011363636362  C 23.321180555555557 7.0894886363636385  21.331018518518523 6.2727272727272725  19 6.2727272727272725  C 16.66898148148148 6.2727272727272725  14.678819444444445 7.0894886363636385  13.029513888888888 8.723011363636362  C 11.380208333333334 10.35653409090909  10.555555555555555 12.327651515151514  10.555555555555555 14.636363636363638  Z M 37.076388888888886 21.82386363636364  C 37.69212962962963 22.43371212121212  38 23.17424242424242  38 24.045454545454543  L 38 42.86363636363637  C 38 43.734848484848484  37.69212962962963 44.47537878787878  37.076388888888886 45.08522727272727  C 36.46064814814815 45.69507575757576  35.71296296296296 46  34.83333333333333 46  L 3.1666666666666665 46  C 2.2870370370370376 46  1.539351851851852 45.69507575757576  0.9236111111111112 45.08522727272727  C 0.30787037037037035 44.47537878787878  0 43.734848484848484  0 42.86363636363637  L 0 24.045454545454543  C 0 23.17424242424242  0.30787037037037035 22.43371212121212  0.9236111111111112 21.82386363636364  C 1.539351851851852 21.214015151515152  2.2870370370370376 20.90909090909091  3.1666666666666665 20.90909090909091  L 4.222222222222222 20.90909090909091  L 4.222222222222222 14.636363636363638  C 4.222222222222222 10.628787878787875  5.673611111111111 7.1875  8.57638888888889 4.3125  C 11.479166666666666 1.4375  14.953703703703704 0  19 0  C 23.046296296296298 0  26.520833333333332 1.4375  29.42361111111111 4.3125  C 32.326388888888886 7.1875  33.77777777777778 10.628787878787875  33.77777777777778 14.636363636363638  L 33.77777777777778 20.90909090909091  L 34.83333333333333 20.90909090909091  C 35.71296296296296 20.90909090909091  36.46064814814815 21.214015151515152  37.076388888888886 21.82386363636364  Z " fill-rule="nonzero" fill="#085096" stroke="none" transform="matrix(1 0 0 1 97 843 )" />
  </g>
</svg>