<?xml version="1.0" encoding="UTF-8"?>
<!DOCTYPE svg PUBLIC "-//W3C//DTD SVG 1.1//EN" "http://www.w3.org/Graphics/SVG/1.1/DTD/svg11.dtd">
<svg xmlns="http://www.w3.org/2000/svg" version="1.1" width="52px" height="52px" style="shape-rendering:geometricPrecision; text-rendering:geometricPrecision; image-rendering:optimizeQuality; fill-rule:evenodd; clip-rule:evenodd" xmlns:xlink="http://www.w3.org/1999/xlink">
<g><path style="opacity:0.807" fill="#2e5496" d="M 22.5,21.5 C 21.8333,21.5 21.5,21.8333 21.5,22.5C 16.5379,18.5471 11.5379,14.5471 6.5,10.5C 5.85506,9.354 5.02173,8.354 4,7.5C 3.16667,4.33333 4.33333,3.16667 7.5,4C 12.7326,9.72513 17.7326,15.5585 22.5,21.5 Z"/></g>
<g><path style="opacity:0.883" fill="#2f5596" d="M 31.5,26.5 C 30.8333,26.5 30.5,26.8333 30.5,27.5C 29.8333,27.5 29.5,27.8333 29.5,28.5C 28.8333,28.5 28.5,28.8333 28.5,29.5C 27.8333,29.5 27.5,29.8333 27.5,30.5C 26.8333,30.5 26.5,30.8333 26.5,31.5C 21.0353,36.4636 15.702,41.6303 10.5,47C 3.56547,48.4368 1.73214,45.9368 5,39.5C 10.7029,33.9647 16.2029,28.2981 21.5,22.5C 22.1667,22.5 22.5,22.1667 22.5,21.5C 25.4639,19.0381 28.2972,16.3714 31,13.5C 31.4411,5.38931 35.6078,2.22265 43.5,4C 41.6487,5.68375 39.982,7.51708 38.5,9.5C 39.3467,10.8448 40.5134,11.8448 42,12.5C 47.6965,6.09461 49.0299,7.42794 46,16.5C 43.6557,18.7744 40.8224,19.9411 37.5,20C 35.2941,22.0367 33.2941,24.2034 31.5,26.5 Z"/></g>
<g><path style="opacity:0.914" fill="#2e5497" d="M 31.5,26.5 C 37.0746,30.5675 42.2413,35.2341 47,40.5C 48.1667,46 46,48.1667 40.5,47C 35.2341,42.2413 30.5675,37.0746 26.5,31.5C 27.1667,31.5 27.5,31.1667 27.5,30.5C 28.1667,30.5 28.5,30.1667 28.5,29.5C 29.1667,29.5 29.5,29.1667 29.5,28.5C 30.1667,28.5 30.5,28.1667 30.5,27.5C 31.1667,27.5 31.5,27.1667 31.5,26.5 Z"/></g>
</svg>
